<svg version="1.2" xmlns="http://www.w3.org/2000/svg" viewBox="0 0 80 80" width="80" height="80">
	<title>icon_teacher</title>
	<style>
		.s0 { fill: #000000 } 
	</style>
	<g>
		<path fill-rule="evenodd" class="s0" d="m21.2 11.8v-2.2c0.5-3.9 2.4-5.5 5.6-5 2.9-3 7.1-4.6 12.9-4.6 6.5-0.1 11.9 1.3 15.9 5.2 2.1 2 3 4 2.5 8.4 0.1 4.3 0.6 4.7-0.9 5.4q0 0.2 0 0.4l-1 0.6c0.8-0.1 1.4 0.4 1.7 1.2q0.3 0.6 0.3 1.5 0.1 0.7 0 1.6c-0.2 2.1-1.2 4.3-3.1 4.5q-0.1 0-0.2 0c0 0 0 0.3 0 0.3 0.1 2.9-1.5 6.2-4.1 8.8-4.8 4.7-12.6 7-19.3 1.7-1.2-1-2.6-1.9-3.6-3.3q0 0 0 0v-0.1c-1.8-1.5-2.6-2.2-3.3-5.4q0-0.1 0-0.2v-1.8q-0.2 0.1-0.3 0c-1.9-0.2-2.9-2.4-3.1-4.5q-0.1-0.8-0.1-1.6 0.1-0.9 0.4-1.5c0.3-0.9 1-1.4 1.9-1.2q0.7 0.1 1.2 0.7v-0.8l-0.8-0.4q-0.1-0.8 0-1.7c-1.4-2.2-2.5-4.3-2.6-6zm38.5 65.6c-2.8-0.5-5.6-0.8-8.4-0.8-3.6 0-7.2 1.9-10.8 3.1q-0.4 0.2-0.8 0.2-0.4 0-0.8-0.2c-8.7-3.1-9.8-4-19.3-2.2 0-5.2 0.2-8.6 0.4-12h-15.9c-2.6-0.1-3.9-1.4-4.1-3.6 0.9-3.8 1.1-6.3 3.5-9.4 1-1.2 2.3-2.1 3.6-2.8 4.3-2.3 18-3 21.8-6.3l4.4 12.3q1.4 0.4 2.6 1l2-6.5-1.5-1.5q-1-1.4-0.4-2.5c0.8-1.5 2.4-1.2 3.9-1.2 1.7 0 3.6-0.3 4.1 1.6 0.2 0.7 0 1.4-0.5 2.1l-1.4 1.5 1.9 6.5q1.2-0.5 2.4-0.9l4-12.4c3.9 3.3 17.6 4 21.9 6.3 1.3 0.7 2.5 1.6 3.5 2.8 2.5 3.1 2.7 5.6 3.6 9.4-0.2 2.2-1.6 3.5-4.1 3.7h-15.8c0.1 3.3 0.2 6.6 0.2 11.8zm-21.3-0.4v-15.2c-1.4-2-3.7-3.4-6.3-4.2-2.9-0.9-6.2-1.1-9.1-0.8l-0.1 16.6c3.1-0.1 6.2 0.2 9 1q3.5 0.9 6.5 2.6zm18.2-16.4q0 0 0-0.1v-3.6c-3.1-0.2-6.3 0-9.1 0.9-2.7 0.8-4.9 2.1-6.4 4v15c2.3-1.3 4.6-1.8 7-2.5 2.8-0.8 5.6-1.2 8.5-1v-12.5q0-0.1 0-0.2zm-3.8-41.5c-0.8-2.4-2-2.7-4.2-3.9-1.8-0.8-3.3-1.4-4.8-1.9-3.7-0.7-7.7-0.5-11 0.5q-1.3 0.5-2.8 1.2c-2.1 1.2-3.1 1.3-3.5 3.3v12.3c0.7 3.4 0.7 2.8 3 4.9l4 3.8c0.7 0.5 1.5 0.8 2.4 1 3 0.7 9.2 0.4 11.5-1.9 3.5-3.2 5.7-4.2 5.4-9.3v-10zm-9.2 3c-0.3 0.1-0.6-0.1-0.7-0.4-0.2-0.3 0-0.7 0.3-0.8 2.2-0.8 3.9-0.7 6.1 0 0.3 0.1 0.5 0.5 0.4 0.8-0.1 0.3-0.4 0.5-0.7 0.4q-0.6-0.2-1.1-0.3 0 0.2 0 0.4c0 0.8-0.7 1.5-1.5 1.5-0.9 0-1.6-0.7-1.6-1.5q0-0.3 0.1-0.6c-0.7 0.1-0.7 0.2-1.3 0.5zm-5.7 6.7c-0.3-0.2-0.3-0.6-0.1-0.8 0.2-0.3 0.6-0.3 0.9-0.1q0.5 0.4 0.9 0.4 0.5 0 1-0.4c0.3-0.2 0.7-0.2 0.9 0.1 0.2 0.2 0.2 0.6-0.1 0.8q-0.9 0.7-1.8 0.7-0.9 0-1.7-0.7zm6.6 4.6q-0.8 0.2-1.6 0.4-0.9 0.3-1.6 0.3-0.8 0-1.3-0.3-0.2-0.1-0.3-0.3-0.2 0.2-0.3 0.3-0.6 0.3-1.4 0.3-0.7 0-1.6-0.3-0.8-0.2-1.6-0.4-0.8-0.3-1.5-0.6c-0.2-0.1-0.3-0.4-0.2-0.6q0.1-0.2 0.3-0.2 0.4 0 0.7-0.1c0.7-0.1 1.2-0.1 1.8-0.4q0.2-0.1 0.5-0.2c0.9-0.4 2-0.9 3-0.1q0.1 0.1 0.3 0.2 0.1-0.1 0.2-0.2c1-0.8 2.1-0.3 3 0.1q0.3 0.1 0.5 0.2c0.6 0.3 1.1 0.3 1.8 0.4q0.3 0.1 0.7 0.1 0.2 0 0.3 0.2c0.1 0.2 0 0.5-0.2 0.6q-0.7 0.3-1.5 0.6zm11.5-12.1c-0.5 0.1-0.8 0.2-1.1 1.2v5.1c2.4-0.4 2.5-6.5 1.1-6.3zm-25.4 0.8c-0.2 0.1-0.6-0.1-0.7-0.4-0.1-0.3 0.1-0.7 0.4-0.8 2.2-0.8 3.8-0.7 6.1 0 0.3 0.1 0.5 0.5 0.4 0.8-0.1 0.3-0.4 0.5-0.7 0.4q-0.6-0.2-1.2-0.3 0.1 0.2 0.1 0.4c0 0.8-0.7 1.5-1.6 1.5-0.8 0-1.6-0.7-1.6-1.5q0.1-0.3 0.2-0.6c-0.7 0.1-0.7 0.2-1.4 0.5zm5.8 14.2c-0.3-0.2-0.4-0.5-0.3-0.8 0.2-0.3 0.5-0.4 0.8-0.2q1.4 0.7 2.7 0.7 1.4 0 2.7-0.7c0.3-0.2 0.6-0.1 0.8 0.2 0.2 0.3 0.1 0.6-0.2 0.8q-1.6 0.8-3.3 0.8-1.6 0-3.2-0.8zm-12-8.7v-5.1c-0.3-1-0.6-1-1.1-1.1-1.3-0.2-1.3 5.7 1.1 6.2z"/>
	</g>
</svg>