<svg version="1.2" xmlns="http://www.w3.org/2000/svg" viewBox="0 0 80 80" width="80" height="80">
	<title>icon_social</title>
	<style>
		.s0 { fill: #1d1d1b } 
	</style>
	<g>
		<path class="s0" d="m62.4 45.4c-5.5 0-10.5 2.6-13.6 6.8l-14.9-7.5q0.6-2.3 0.6-4.7 0-2.5-0.6-4.8l14.9-7.5c3.1 4.2 8.1 6.9 13.6 6.9 9.4 0 17.1-7.7 17.1-17.1 0-9.4-7.7-17-17.1-17-9.4 0-17 7.6-17 17q0 2.5 0.7 4.7l-15 7.5c-3.1-4.1-8.1-6.8-13.6-6.8-9.4 0-17.1 7.7-17.1 17.1 0 9.4 7.7 17 17.1 17 5.5 0 10.5-2.7 13.6-6.8l15 7.5q-0.7 2.2-0.7 4.7c0 9.4 7.6 17.1 17 17.1 9.4 0 17.1-7.7 17.1-17.1 0-9.4-7.7-17-17.1-17zm0-38.8c6 0 10.9 4.9 10.9 10.9 0 6-4.9 10.9-10.9 10.9-6 0-10.9-4.9-10.9-10.9 0-6 4.9-10.9 10.9-10.9zm-44.9 44.3c-6 0-10.9-4.9-10.9-10.9 0-6.1 4.9-10.9 10.9-10.9 6 0 10.9 4.8 10.9 10.9 0 6-4.9 10.9-10.9 10.9zm44.9 22.4c-6 0-10.9-4.9-10.9-10.9 0-6 4.9-10.9 10.9-10.9 6 0 10.9 4.9 10.9 10.9 0 6-4.9 10.9-10.9 10.9z"/>
	</g>
</svg>