<svg version="1.2" xmlns="http://www.w3.org/2000/svg" viewBox="0 0 80 80" width="80" height="80">
	<title>icon_email</title>
	<style>
		.s0 { fill: #1d1d1b } 
	</style>
	<g>
		<path class="s0" d="m66.8 69.6h-53.7c-7 0-12.7-5.7-12.7-12.7v-33.9c0-7 5.7-12.7 12.7-12.7h53.7c7 0 12.7 5.7 12.7 12.7v33.9c0 7-5.7 12.7-12.7 12.7zm-53.7-55.6c-4.9 0-8.9 4.1-8.9 9v33.9c0 4.9 4 9 8.9 9h53.7c4.9 0 9-4.1 9-9v-33.9c0-4.9-4.1-9-9-9z"/>
		<path class="s0" d="m10.1 23.2q14.3 13.9 28.5 27.7c1.8 1.8 4.5-1 2.7-2.7q-14.2-13.8-28.5-27.7c-1.7-1.7-4.4 1-2.7 2.7z"/>
		<path class="s0" d="m41.3 50.9q14.2-13.8 28.5-27.7c1.7-1.7-1-4.4-2.7-2.7q-14.3 13.9-28.5 27.7c-1.8 1.7 0.9 4.5 2.7 2.7z"/>
		<path class="s0" d="m69.7 57.5q-9.5-9-19-18c-1.8-1.7-4.5 1-2.7 2.7q9.5 9 19 18c1.7 1.7 4.5-1 2.7-2.7z"/>
		<path class="s0" d="m13.1 60.2q9.5-9 19-18c1.8-1.7-1-4.4-2.7-2.7q-9.5 9-19 18c-1.8 1.7 0.9 4.4 2.7 2.7z"/>
	</g>
</svg>